<svg xmlns="http://www.w3.org/2000/svg" width="240" height="56" fill="none"><path d="M17.63 6.637A10 10 0 0127.047 0H225.81c6.915 0 11.743 6.85 9.417 13.363l-12.857 36A10 10 0 01212.953 56H14.19c-6.915 0-11.743-6.85-9.417-13.363l12.857-36z" fill="url(#paint0_linear_709_305)"/><path d="M51.993 31.624h5.31V34h-7.794V21.4h7.704v2.376h-5.22v2.682h4.77v2.34h-4.77v2.826zm13.613-2.232c.84.408 1.26 1.092 1.26 2.052 0 .756-.264 1.374-.792 1.854-.516.468-1.254.702-2.214.702h-4.734v-9H63.5c.948 0 1.68.234 2.196.702.528.468.792 1.08.792 1.836 0 .792-.294 1.41-.882 1.854zm-2.322-2.484h-1.98v1.62h1.98c.66 0 .99-.27.99-.81s-.33-.81-.99-.81zm.306 5.13c.672 0 1.008-.288 1.008-.864a.72.72 0 00-.27-.594c-.18-.144-.426-.216-.738-.216h-2.286v1.674h2.286zM74.655 25v2.232H70.82V34h-2.322v-9h6.156zm3.035 5.454c.312 1.128 1.158 1.692 2.538 1.692.888 0 1.56-.3 2.016-.9l1.872 1.08c-.888 1.284-2.196 1.926-3.924 1.926-1.488 0-2.682-.45-3.582-1.35-.9-.9-1.35-2.034-1.35-3.402 0-1.356.444-2.484 1.332-3.384.888-.912 2.028-1.368 3.42-1.368 1.32 0 2.406.456 3.258 1.368.864.912 1.296 2.04 1.296 3.384 0 .3-.03.618-.09.954H77.69zm-.036-1.8h4.59c-.132-.612-.408-1.068-.828-1.368-.408-.3-.876-.45-1.404-.45-.624 0-1.14.162-1.548.486-.408.312-.678.756-.81 1.332zM92.27 25h2.323v9H92.27v-3.42h-3.582V34h-2.322v-9h2.322v3.402h3.582V25zm11.128 0h1.728v9h-2.268v-5.112L98.628 34H96.9v-9h2.268v5.112l4.23-5.112zm5.548-1.152v-2.016h5.22v2.016h-5.22zM113.932 25h1.728v9h-2.268v-5.112L109.162 34h-1.728v-9h2.268v5.112l4.23-5.112zm18.237-3.6V34h-2.484V23.776h-4.446V34h-2.484V21.4h9.414zm10.086 11.484c-.924.912-2.052 1.368-3.384 1.368-1.332 0-2.46-.456-3.384-1.368-.912-.924-1.368-2.052-1.368-3.384 0-1.332.456-2.454 1.368-3.366.924-.924 2.052-1.386 3.384-1.386 1.332 0 2.46.462 3.384 1.386.924.912 1.386 2.034 1.386 3.366 0 1.332-.462 2.46-1.386 3.384zm-5.13-1.602c.468.468 1.05.702 1.746.702s1.278-.234 1.746-.702c.468-.468.702-1.062.702-1.782s-.234-1.314-.702-1.782c-.468-.468-1.05-.702-1.746-.702s-1.278.234-1.746.702c-.456.468-.684 1.062-.684 1.782s.228 1.314.684 1.782zM151.359 25h2.322v9h-2.322v-3.42h-3.582V34h-2.322v-9h2.322v3.402h3.582V25zm11.847 0v9h-2.268v-2.808h-.81L158.058 34h-2.682l2.25-3.078a3.053 3.053 0 01-1.386-1.134 3.097 3.097 0 01-.504-1.692c0-.84.3-1.566.9-2.178.6-.612 1.386-.918 2.358-.918h4.212zm-4.032 2.07c-.336 0-.618.102-.846.306-.216.192-.324.456-.324.792 0 .324.108.582.324.774.228.192.51.288.846.288h1.764v-2.16h-1.764zm13.42-2.07v2.232h-2.808V34h-2.322v-6.768h-2.844V25h7.974zm8.737 7.884c-.924.912-2.052 1.368-3.384 1.368-1.332 0-2.46-.456-3.384-1.368-.912-.924-1.368-2.052-1.368-3.384 0-1.332.456-2.454 1.368-3.366.924-.924 2.052-1.386 3.384-1.386 1.332 0 2.46.462 3.384 1.386.924.912 1.386 2.034 1.386 3.366 0 1.332-.462 2.46-1.386 3.384zm-5.13-1.602c.468.468 1.05.702 1.746.702s1.278-.234 1.746-.702c.468-.468.702-1.062.702-1.782s-.234-1.314-.702-1.782c-.468-.468-1.05-.702-1.746-.702s-1.278.234-1.746.702c-.456.468-.684 1.062-.684 1.782s.228 1.314.684 1.782zm14.809-1.89c.84.408 1.26 1.092 1.26 2.052 0 .756-.264 1.374-.792 1.854-.516.468-1.254.702-2.214.702h-4.734v-9h4.374c.948 0 1.68.234 2.196.702.528.468.792 1.08.792 1.836 0 .792-.294 1.41-.882 1.854zm-2.322-2.484h-1.98v1.62h1.98c.66 0 .99-.27.99-.81s-.33-.81-.99-.81zm.306 5.13c.672 0 1.008-.288 1.008-.864a.72.72 0 00-.27-.594c-.18-.144-.426-.216-.738-.216h-2.286v1.674h2.286z" fill="#fff"/><defs><linearGradient id="paint0_linear_709_305" x1="120" y1="0" x2="120" y2="56" gradientUnits="userSpaceOnUse"><stop stop-color="#494949"/><stop offset="1" stop-color="#050505"/></linearGradient></defs></svg>