<svg xmlns="http://www.w3.org/2000/svg" width="53" height="36" fill="none"><path d="M8.38 14.6L5.42 9.5H2.7v5.1H.4V.6H6c1.253 0 2.313.44 3.18 1.32.88.867 1.32 1.927 1.32 3.18 0 .893-.26 1.713-.78 2.46a4.365 4.365 0 01-2 1.6l3.18 5.44H8.38zM2.7 2.76v4.68H6c.613 0 1.133-.227 1.56-.68.427-.453.64-1.007.64-1.66s-.213-1.207-.64-1.66A2.061 2.061 0 006 2.76H2.7zm10.998 7.76c.16.76.527 1.347 1.1 1.76.574.4 1.274.6 2.1.6 1.147 0 2.007-.413 2.58-1.24l1.78 1.04c-.986 1.453-2.446 2.18-4.38 2.18-1.626 0-2.94-.493-3.94-1.48-1-1-1.5-2.26-1.5-3.78 0-1.493.494-2.74 1.48-3.74.987-1.013 2.254-1.52 3.8-1.52 1.467 0 2.667.513 3.6 1.54.947 1.027 1.42 2.273 1.42 3.74 0 .227-.026.527-.08.9h-7.96zm-.02-1.76h5.88c-.146-.813-.486-1.427-1.02-1.84-.52-.413-1.133-.62-1.84-.62-.8 0-1.466.22-2 .66-.533.44-.873 1.04-1.02 1.8zm15.228-2.08h-2.48v4.8c0 .413.094.713.28.9.187.173.46.273.82.3.374.013.834.007 1.38-.02v1.94c-1.653.2-2.84.06-3.56-.42-.72-.493-1.08-1.393-1.08-2.7v-4.8h-1.84V4.6h1.84V2.44l2.16-.64v2.8h2.48v2.08zm9.469-2.08h2.16v10h-2.16v-1.44c-.813 1.133-1.98 1.7-3.5 1.7-1.373 0-2.546-.507-3.52-1.52-.973-1.027-1.46-2.273-1.46-3.74 0-1.48.487-2.727 1.46-3.74.974-1.013 2.147-1.52 3.52-1.52 1.52 0 2.687.56 3.5 1.68V4.6zm-5.42 7.3c.6.6 1.354.9 2.26.9.907 0 1.66-.3 2.26-.9.6-.613.9-1.38.9-2.3 0-.92-.3-1.68-.9-2.28-.6-.613-1.353-.92-2.26-.92-.906 0-1.66.307-2.26.92-.6.6-.9 1.36-.9 2.28 0 .92.3 1.687.9 2.3zm12.138-9.2a1.31 1.31 0 01-.96.4c-.373 0-.7-.133-.98-.4-.267-.28-.4-.607-.4-.98s.133-.693.4-.96c.267-.28.593-.42.98-.42s.713.14.98.42c.267.267.4.587.4.96s-.14.7-.42.98zm-2.04 11.9v-10h2.16v10h-2.16zm4.668 0V0h2.16v14.6h-2.16z" fill="#F8DF9D"/><path d="M.4 21.6h2.3v14H.4v-14zm10.218 3.74c1.146 0 2.073.367 2.78 1.1.706.733 1.06 1.74 1.06 3.02v6.14h-2.16v-5.92c0-.747-.2-1.32-.6-1.72-.4-.4-.947-.6-1.64-.6-.76 0-1.374.24-1.84.72-.467.467-.7 1.187-.7 2.16v5.36h-2.16v-10h2.16v1.28c.653-1.027 1.686-1.54 3.1-1.54zm12.789.26h2.36l-3.9 10h-2.5l-3.9-10h2.36l2.8 7.6 2.78-7.6zm5.037 5.92c.16.76.527 1.347 1.1 1.76.574.4 1.274.6 2.1.6 1.147 0 2.007-.413 2.58-1.24l1.78 1.04c-.986 1.453-2.446 2.18-4.38 2.18-1.626 0-2.94-.493-3.94-1.48-1-1-1.5-2.26-1.5-3.78 0-1.493.494-2.74 1.48-3.74.987-1.013 2.254-1.52 3.8-1.52 1.467 0 2.667.513 3.6 1.54.947 1.027 1.42 2.273 1.42 3.74 0 .227-.026.527-.08.9h-7.96zm-.02-1.76h5.88c-.146-.813-.486-1.427-1.02-1.84-.52-.413-1.133-.62-1.84-.62-.8 0-1.466.22-2 .66-.533.44-.873 1.04-1.02 1.8zm11.51-1.4c0 .333.18.6.54.8.374.187.82.353 1.34.5.534.133 1.067.293 1.6.48.534.187.98.507 1.34.96.374.44.56 1 .56 1.68 0 .96-.373 1.713-1.12 2.26-.733.547-1.66.82-2.78.82-.986 0-1.833-.207-2.54-.62a3.636 3.636 0 01-1.54-1.72l1.86-1.08c.347.96 1.087 1.44 2.22 1.44 1.134 0 1.7-.373 1.7-1.12 0-.32-.186-.58-.56-.78-.36-.2-.806-.367-1.34-.5a26.831 26.831 0 01-1.58-.5 3.17 3.17 0 01-1.36-.92c-.36-.44-.54-.993-.54-1.66 0-.92.347-1.66 1.04-2.22.707-.56 1.58-.84 2.62-.84.827 0 1.56.187 2.2.56.654.36 1.154.867 1.5 1.52l-1.82 1.02c-.346-.76-.973-1.14-1.88-1.14-.413 0-.76.093-1.04.28-.28.173-.42.433-.42.78zm12.469-.68h-2.48v4.8c0 .413.093.713.28.9.186.173.46.273.82.3.373.013.833.007 1.38-.02v1.94c-1.654.2-2.84.06-3.56-.42-.72-.493-1.08-1.393-1.08-2.7v-4.8h-1.84V25.6h1.84v-2.16l2.16-.64v2.8h2.48v2.08z" fill="#fff"/></svg>