<svg xmlns="http://www.w3.org/2000/svg" width="360" height="172" fill="none"><g clip-path="url(#clip0_915_1033)"><path fill-rule="evenodd" clip-rule="evenodd" d="M182.498 64.213c17.948 0 32.498-11.24 32.498-25.107V39H343a5 5 0 015 5v123a5 5 0 01-5 5H17a5 5 0 01-5-5V44a5 5 0 015-5h133v.106c0 13.866 14.55 25.107 32.498 25.107z" fill="#D8D8D8"/><path fill-rule="evenodd" clip-rule="evenodd" d="M180.5 55c16.292 0 29.5-13.208 29.5-29.5 0-.167-.001-.334-.004-.5H355a5 5 0 015 5v131a5 5 0 01-5 5H5a5 5 0 01-5-5V30a5 5 0 015-5h146.004a27.73 27.73 0 00-.004.5c0 16.292 13.208 29.5 29.5 29.5z" fill="#fff"/><g filter="url(#filter0_d_915_1033)"><circle cx="180.5" cy="25.5" r="25.5" fill="url(#paint0_linear_915_1033)"/></g><path fill-rule="evenodd" clip-rule="evenodd" d="M189.517 18.425c.614.595.647 1.594.074 2.231l-10.64 11.842a1.495 1.495 0 01-1.085.502 1.492 1.492 0 01-1.101-.462l-5.32-5.527a1.624 1.624 0 010-2.233 1.48 1.48 0 012.15 0l4.207 4.37 9.567-10.646a1.48 1.48 0 012.148-.077z" fill="#7A633C"/></g><defs><linearGradient id="paint0_linear_915_1033" x1="193.5" y1="-3" x2="204.37" y2="36.303" gradientUnits="userSpaceOnUse"><stop stop-color="#FFEFB7"/><stop offset="1" stop-color="#E7B161"/></linearGradient><clipPath id="clip0_915_1033"><path fill="#fff" d="M0 0h360v172H0z"/></clipPath><filter id="filter0_d_915_1033" x="95" y="-46" width="171" height="171" filterUnits="userSpaceOnUse" color-interpolation-filters="sRGB"><feFlood flood-opacity="0" result="BackgroundImageFix"/><feColorMatrix in="SourceAlpha" values="0 0 0 0 0 0 0 0 0 0 0 0 0 0 0 0 0 0 127 0" result="hardAlpha"/><feOffset dy="14"/><feGaussianBlur stdDeviation="30"/><feColorMatrix values="0 0 0 0 0.937255 0 0 0 0 0.772549 0 0 0 0 0.2 0 0 0 0.12 0"/><feBlend in2="BackgroundImageFix" result="effect1_dropShadow_915_1033"/><feBlend in="SourceGraphic" in2="effect1_dropShadow_915_1033" result="shape"/></filter></defs></svg>