<svg xmlns="http://www.w3.org/2000/svg" width="101" height="80" fill="none"><path opacity=".05" d="M91.58 68.54c9.435-10.24 8.485-23.39 8.455-23.54V5a5 5 0 00-5-5h-30c-5.515 0-10 4.485-10 10v35a5 5 0 005 5h15.39a14.45 14.45 0 01-2.145 6.98c-2.54 4.005-7.325 6.74-14.23 8.12l-4.015.8V80h5c13.915 0 24.53-3.855 31.545-11.46zm-55.035 0C45.985 58.3 45.03 45.15 45 45V5a5 5 0 00-5-5H10C4.485 0 0 4.485 0 10v35a5 5 0 005 5h15.39a14.45 14.45 0 01-2.145 6.98c-2.54 4.005-7.325 6.74-14.23 8.12L0 65.9V80h5c13.915 0 24.53-3.855 31.545-11.46z" fill="#111"/></svg>