<svg xmlns="http://www.w3.org/2000/svg" width="240" height="56" fill="none"><path d="M17.63 6.637A10 10 0 0127.047 0H225.81c6.915 0 11.743 6.85 9.417 13.363l-12.857 36A10 10 0 01212.953 56H14.19c-6.915 0-11.743-6.85-9.417-13.363l12.857-36z" fill="url(#paint0_linear_709_308)"/><path d="M66.285 34.252c-1.896 0-3.462-.63-4.698-1.89-1.236-1.26-1.854-2.814-1.854-4.662 0-1.86.618-3.414 1.854-4.662 1.236-1.26 2.802-1.89 4.698-1.89 1.14 0 2.19.27 3.15.81.972.528 1.728 1.248 2.268 2.16L69.56 25.36a3.267 3.267 0 00-1.332-1.314c-.576-.324-1.224-.486-1.944-.486-1.224 0-2.214.384-2.97 1.152-.744.768-1.116 1.764-1.116 2.988 0 1.212.372 2.202 1.116 2.97.756.768 1.746 1.152 2.97 1.152.72 0 1.368-.156 1.944-.468a3.268 3.268 0 001.332-1.314l2.142 1.242a5.947 5.947 0 01-2.25 2.178c-.96.528-2.016.792-3.168.792zm9.031-3.798c.312 1.128 1.158 1.692 2.538 1.692.888 0 1.56-.3 2.016-.9l1.872 1.08c-.888 1.284-2.196 1.926-3.924 1.926-1.488 0-2.682-.45-3.582-1.35-.9-.9-1.35-2.034-1.35-3.402 0-1.356.444-2.484 1.332-3.384.888-.912 2.028-1.368 3.42-1.368 1.32 0 2.406.456 3.258 1.368.864.912 1.296 2.04 1.296 3.384 0 .3-.03.618-.09.954h-6.786zm-.036-1.8h4.59c-.132-.612-.408-1.068-.828-1.368-.408-.3-.876-.45-1.404-.45-.624 0-1.14.162-1.548.486-.408.312-.678.756-.81 1.332zm13.95-3.906c1.213 0 2.245.462 3.097 1.386.864.912 1.296 2.034 1.296 3.366 0 1.332-.432 2.46-1.296 3.384-.852.912-1.884 1.368-3.096 1.368-1.26 0-2.232-.438-2.916-1.314V37.6h-2.322V25h2.322v1.062c.684-.876 1.656-1.314 2.916-1.314zm-2.213 6.588c.468.468 1.062.702 1.782.702s1.314-.234 1.782-.702c.48-.48.72-1.092.72-1.836s-.24-1.35-.72-1.818c-.468-.48-1.062-.72-1.782-.72s-1.314.24-1.782.72c-.468.468-.702 1.074-.702 1.818s.234 1.356.702 1.836zM101.596 25v2.232h-3.834V34H95.44v-9h6.156zm3.035 5.454c.312 1.128 1.158 1.692 2.538 1.692.888 0 1.56-.3 2.016-.9l1.872 1.08c-.888 1.284-2.196 1.926-3.924 1.926-1.488 0-2.682-.45-3.582-1.35-.9-.9-1.35-2.034-1.35-3.402 0-1.356.444-2.484 1.332-3.384.888-.912 2.028-1.368 3.42-1.368 1.32 0 2.406.456 3.258 1.368.864.912 1.296 2.04 1.296 3.384 0 .3-.03.618-.09.954h-6.786zm-.036-1.8h4.59c-.132-.612-.408-1.068-.828-1.368-.408-.3-.876-.45-1.404-.45-.624 0-1.14.162-1.548.486-.408.312-.678.756-.81 1.332zm10.225-4.806v-2.016h5.22v2.016h-5.22zM119.806 25h1.728v9h-2.268v-5.112L115.036 34h-1.728v-9h2.268v5.112l4.23-5.112zm18.237-3.6V34h-2.484V23.776h-4.446V34h-2.484V21.4h9.414zm10.086 11.484c-.924.912-2.052 1.368-3.384 1.368-1.332 0-2.46-.456-3.384-1.368-.912-.924-1.368-2.052-1.368-3.384 0-1.332.456-2.454 1.368-3.366.924-.924 2.052-1.386 3.384-1.386 1.332 0 2.46.462 3.384 1.386.924.912 1.386 2.034 1.386 3.366 0 1.332-.462 2.46-1.386 3.384zm-5.13-1.602c.468.468 1.05.702 1.746.702s1.278-.234 1.746-.702c.468-.468.702-1.062.702-1.782s-.234-1.314-.702-1.782c-.468-.468-1.05-.702-1.746-.702s-1.278.234-1.746.702c-.456.468-.684 1.062-.684 1.782s.228 1.314.684 1.782zM159.555 25v9h-2.322v-6.822h-3.582V34h-2.322v-9h8.226zm9.975 7.884c-.924.912-2.052 1.368-3.384 1.368-1.332 0-2.46-.456-3.384-1.368-.912-.924-1.368-2.052-1.368-3.384 0-1.332.456-2.454 1.368-3.366.924-.924 2.052-1.386 3.384-1.386 1.332 0 2.46.462 3.384 1.386.924.912 1.386 2.034 1.386 3.366 0 1.332-.462 2.46-1.386 3.384zm-5.13-1.602c.468.468 1.05.702 1.746.702s1.278-.234 1.746-.702c.468-.468.702-1.062.702-1.782s-.234-1.314-.702-1.782c-.468-.468-1.05-.702-1.746-.702s-1.278.234-1.746.702c-.456.468-.684 1.062-.684 1.782s.228 1.314.684 1.782zm14.81-1.89c.84.408 1.26 1.092 1.26 2.052 0 .756-.264 1.374-.792 1.854-.516.468-1.254.702-2.214.702h-4.734v-9h4.374c.948 0 1.68.234 2.196.702.528.468.792 1.08.792 1.836 0 .792-.294 1.41-.882 1.854zm-2.322-2.484h-1.98v1.62h1.98c.66 0 .99-.27.99-.81s-.33-.81-.99-.81zm.306 5.13c.672 0 1.008-.288 1.008-.864a.72.72 0 00-.27-.594c-.18-.144-.426-.216-.738-.216h-2.286v1.674h2.286z" fill="#fff"/><defs><linearGradient id="paint0_linear_709_308" x1="120" y1="0" x2="120" y2="56" gradientUnits="userSpaceOnUse"><stop stop-color="#494949"/><stop offset="1" stop-color="#050505"/></linearGradient></defs></svg>